<svg xmlns="http://www.w3.org/2000/svg" xmlns:xlink="http://www.w3.org/1999/xlink" width="601" zoomAndPan="magnify" viewBox="0 0 450.75 324.749988" height="433" preserveAspectRatio="xMidYMid meet" version="1.0"><defs><g/><clipPath id="c2d840fe3c"><path d="M 196 117 L 220 117 L 220 141 L 196 141 Z M 196 117 " clip-rule="nonzero"/></clipPath><clipPath id="1c3939c106"><path d="M 196.324219 112.65625 L 225.023438 121.367188 L 218.492188 142.890625 L 189.792969 134.183594 Z M 196.324219 112.65625 " clip-rule="nonzero"/></clipPath><clipPath id="063dbe7ec0"><path d="M 196.324219 112.65625 L 225.023438 121.367188 L 218.492188 142.890625 L 189.792969 134.183594 Z M 196.324219 112.65625 " clip-rule="nonzero"/></clipPath></defs><g clip-path="url(#c2d840fe3c)"><g clip-path="url(#1c3939c106)"><g clip-path="url(#063dbe7ec0)"><path fill="#000000" d="M 214.171875 121.652344 C 213 118.066406 208.359375 116.308594 205.007812 118.867188 C 197.785156 115.058594 192.699219 124.644531 199.542969 128.253906 C 199.5 130.023438 198.679688 132.964844 197.960938 135.324219 C 197.589844 136.550781 198.03125 136.628906 198.6875 136.820312 L 209.554688 140.113281 C 210.105469 140.28125 210.527344 140.289062 210.824219 139.296875 C 210.882812 139.050781 212.707031 133.761719 213.457031 132.496094 C 221.417969 133.207031 221.980469 122.273438 214.171875 121.652344 " fill-opacity="1" fill-rule="nonzero"/></g></g></g><g fill="#000000" fill-opacity="1"><g transform="translate(49.738418, 189.803572)"><g><path d="M 2.90625 -28.984375 C 2.90625 -34.671875 4.1875 -39.765625 6.75 -44.265625 C 9.320312 -48.765625 12.828125 -52.269531 17.265625 -54.78125 C 21.710938 -57.300781 26.695312 -58.5625 32.21875 -58.5625 C 38.675781 -58.5625 44.332031 -56.90625 49.1875 -53.59375 C 54.050781 -50.28125 57.453125 -45.695312 59.390625 -39.84375 L 46.046875 -39.84375 C 44.722656 -42.601562 42.859375 -44.671875 40.453125 -46.046875 C 38.054688 -47.429688 35.285156 -48.125 32.140625 -48.125 C 28.765625 -48.125 25.765625 -47.335938 23.140625 -45.765625 C 20.523438 -44.191406 18.484375 -41.96875 17.015625 -39.09375 C 15.554688 -36.21875 14.828125 -32.847656 14.828125 -28.984375 C 14.828125 -25.179688 15.554688 -21.828125 17.015625 -18.921875 C 18.484375 -16.023438 20.523438 -13.789062 23.140625 -12.21875 C 25.765625 -10.644531 28.765625 -9.859375 32.140625 -9.859375 C 35.285156 -9.859375 38.054688 -10.5625 40.453125 -11.96875 C 42.859375 -13.375 44.722656 -15.457031 46.046875 -18.21875 L 59.390625 -18.21875 C 57.453125 -12.3125 54.066406 -7.710938 49.234375 -4.421875 C 44.410156 -1.140625 38.738281 0.5 32.21875 0.5 C 26.695312 0.5 21.710938 -0.753906 17.265625 -3.265625 C 12.828125 -5.785156 9.320312 -9.28125 6.75 -13.75 C 4.1875 -18.21875 2.90625 -23.296875 2.90625 -28.984375 Z M 2.90625 -28.984375 "/></g></g></g><g fill="#000000" fill-opacity="1"><g transform="translate(113.348763, 189.803572)"><g><path d="M 26.09375 0.75 C 21.675781 0.75 17.695312 -0.226562 14.15625 -2.1875 C 10.625 -4.15625 7.847656 -6.929688 5.828125 -10.515625 C 3.816406 -14.109375 2.8125 -18.25 2.8125 -22.9375 C 2.8125 -27.632812 3.847656 -31.773438 5.921875 -35.359375 C 7.992188 -38.953125 10.820312 -41.726562 14.40625 -43.6875 C 18 -45.644531 22.003906 -46.625 26.421875 -46.625 C 30.835938 -46.625 34.835938 -45.644531 38.421875 -43.6875 C 42.015625 -41.726562 44.847656 -38.953125 46.921875 -35.359375 C 48.992188 -31.773438 50.03125 -27.632812 50.03125 -22.9375 C 50.03125 -18.25 48.96875 -14.109375 46.84375 -10.515625 C 44.71875 -6.929688 41.84375 -4.15625 38.21875 -2.1875 C 34.601562 -0.226562 30.5625 0.75 26.09375 0.75 Z M 26.09375 -9.359375 C 28.1875 -9.359375 30.15625 -9.867188 32 -10.890625 C 33.851562 -11.910156 35.332031 -13.441406 36.4375 -15.484375 C 37.539062 -17.523438 38.09375 -20.007812 38.09375 -22.9375 C 38.09375 -27.300781 36.945312 -30.65625 34.65625 -33 C 32.363281 -35.351562 29.5625 -36.53125 26.25 -36.53125 C 22.9375 -36.53125 20.160156 -35.351562 17.921875 -33 C 15.691406 -30.65625 14.578125 -27.300781 14.578125 -22.9375 C 14.578125 -18.582031 15.664062 -15.226562 17.84375 -12.875 C 20.03125 -10.53125 22.78125 -9.359375 26.09375 -9.359375 Z M 26.09375 -9.359375 "/></g></g></g><g fill="#000000" fill-opacity="1"><g transform="translate(166.191724, 189.803572)"><g><path d="M 26.09375 0.75 C 21.675781 0.75 17.695312 -0.226562 14.15625 -2.1875 C 10.625 -4.15625 7.847656 -6.929688 5.828125 -10.515625 C 3.816406 -14.109375 2.8125 -18.25 2.8125 -22.9375 C 2.8125 -27.632812 3.847656 -31.773438 5.921875 -35.359375 C 7.992188 -38.953125 10.820312 -41.726562 14.40625 -43.6875 C 18 -45.644531 22.003906 -46.625 26.421875 -46.625 C 30.835938 -46.625 34.835938 -45.644531 38.421875 -43.6875 C 42.015625 -41.726562 44.847656 -38.953125 46.921875 -35.359375 C 48.992188 -31.773438 50.03125 -27.632812 50.03125 -22.9375 C 50.03125 -18.25 48.96875 -14.109375 46.84375 -10.515625 C 44.71875 -6.929688 41.84375 -4.15625 38.21875 -2.1875 C 34.601562 -0.226562 30.5625 0.75 26.09375 0.75 Z M 26.09375 -9.359375 C 28.1875 -9.359375 30.15625 -9.867188 32 -10.890625 C 33.851562 -11.910156 35.332031 -13.441406 36.4375 -15.484375 C 37.539062 -17.523438 38.09375 -20.007812 38.09375 -22.9375 C 38.09375 -27.300781 36.945312 -30.65625 34.65625 -33 C 32.363281 -35.351562 29.5625 -36.53125 26.25 -36.53125 C 22.9375 -36.53125 20.160156 -35.351562 17.921875 -33 C 15.691406 -30.65625 14.578125 -27.300781 14.578125 -22.9375 C 14.578125 -18.582031 15.664062 -15.226562 17.84375 -12.875 C 20.03125 -10.53125 22.78125 -9.359375 26.09375 -9.359375 Z M 26.09375 -9.359375 "/></g></g></g><g fill="#000000" fill-opacity="1"><g transform="translate(219.034685, 189.803572)"><g><path d="M 32.875 0 L 17.3125 -19.546875 L 17.3125 0 L 5.71875 0 L 5.71875 -61.296875 L 17.3125 -61.296875 L 17.3125 -26.421875 L 32.71875 -45.890625 L 47.796875 -45.890625 L 27.578125 -22.859375 L 47.953125 0 Z M 32.875 0 "/></g></g></g><g fill="#000000" fill-opacity="1"><g transform="translate(267.405054, 189.803572)"><g><path d="M 17.140625 -57.8125 L 17.140625 -22.03125 C 17.140625 -18.113281 18.160156 -15.117188 20.203125 -13.046875 C 22.253906 -10.972656 25.128906 -9.9375 28.828125 -9.9375 C 32.578125 -9.9375 35.472656 -10.972656 37.515625 -13.046875 C 39.554688 -15.117188 40.578125 -18.113281 40.578125 -22.03125 L 40.578125 -57.8125 L 52.265625 -57.8125 L 52.265625 -22.109375 C 52.265625 -17.203125 51.203125 -13.050781 49.078125 -9.65625 C 46.953125 -6.257812 44.109375 -3.703125 40.546875 -1.984375 C 36.984375 -0.273438 33.019531 0.578125 28.65625 0.578125 C 24.351562 0.578125 20.445312 -0.273438 16.9375 -1.984375 C 13.425781 -3.703125 10.648438 -6.257812 8.609375 -9.65625 C 6.566406 -13.050781 5.546875 -17.203125 5.546875 -22.109375 L 5.546875 -57.8125 Z M 17.140625 -57.8125 "/></g></g></g><g fill="#000000" fill-opacity="1"><g transform="translate(325.134755, 189.803572)"><g><path d="M 17.3125 -39.265625 C 18.800781 -41.359375 20.859375 -43.109375 23.484375 -44.515625 C 26.109375 -45.921875 29.101562 -46.625 32.46875 -46.625 C 36.382812 -46.625 39.929688 -45.65625 43.109375 -43.71875 C 46.285156 -41.789062 48.796875 -39.046875 50.640625 -35.484375 C 52.492188 -31.929688 53.421875 -27.804688 53.421875 -23.109375 C 53.421875 -18.410156 52.492188 -14.253906 50.640625 -10.640625 C 48.796875 -7.023438 46.285156 -4.222656 43.109375 -2.234375 C 39.929688 -0.242188 36.382812 0.75 32.46875 0.75 C 29.101562 0.75 26.132812 0.0625 23.5625 -1.3125 C 21 -2.695312 18.914062 -4.441406 17.3125 -6.546875 L 17.3125 21.859375 L 5.71875 21.859375 L 5.71875 -45.890625 L 17.3125 -45.890625 Z M 41.578125 -23.109375 C 41.578125 -25.867188 41.007812 -28.253906 39.875 -30.265625 C 38.75 -32.285156 37.257812 -33.816406 35.40625 -34.859375 C 33.5625 -35.910156 31.5625 -36.4375 29.40625 -36.4375 C 27.300781 -36.4375 25.320312 -35.898438 23.46875 -34.828125 C 21.625 -33.753906 20.132812 -32.191406 19 -30.140625 C 17.875 -28.097656 17.3125 -25.695312 17.3125 -22.9375 C 17.3125 -20.175781 17.875 -17.773438 19 -15.734375 C 20.132812 -13.691406 21.625 -12.128906 23.46875 -11.046875 C 25.320312 -9.972656 27.300781 -9.4375 29.40625 -9.4375 C 31.5625 -9.4375 33.5625 -9.988281 35.40625 -11.09375 C 37.257812 -12.195312 38.75 -13.769531 39.875 -15.8125 C 41.007812 -17.863281 41.578125 -20.296875 41.578125 -23.109375 Z M 41.578125 -23.109375 "/></g></g></g><g fill="#000000" fill-opacity="1"><g transform="translate(381.280948, 189.803572)"><g/></g></g><g fill="#000000" fill-opacity="1"><g transform="translate(226.249266, 236.665472)"><g/></g></g><g fill="#000000" fill-opacity="1"><g transform="translate(226.66236, 108.205484)"><g/></g></g></svg>