<?xml version="1.0" encoding="UTF-8" standalone="no"?>
<!-- Generator: Adobe Illustrator 26.2.1, SVG Export Plug-In . SVG Version: 6.00 Build 0)  -->

<svg
   version="1.1"
   id="Capa_1"
   x="0px"
   y="0px"
   viewBox="0 0 598.10364 181.64314"
   xml:space="preserve"
   sodipodi:docname="logo.svg"
   width="598.10364"
   height="181.64314"
   inkscape:version="1.2.2 (732a01da63, 2022-12-09)"
   xmlns:inkscape="http://www.inkscape.org/namespaces/inkscape"
   xmlns:sodipodi="http://sodipodi.sourceforge.net/DTD/sodipodi-0.dtd"
   xmlns:xlink="http://www.w3.org/1999/xlink"
   xmlns="http://www.w3.org/2000/svg"
   xmlns:svg="http://www.w3.org/2000/svg"><defs
   id="defs170" /><sodipodi:namedview
   id="namedview168"
   pagecolor="#ffffff"
   bordercolor="#000000"
   borderopacity="0.25"
   inkscape:showpageshadow="2"
   inkscape:pageopacity="0.0"
   inkscape:pagecheckerboard="0"
   inkscape:deskcolor="#d1d1d1"
   showgrid="false"
   inkscape:zoom="1.9076212"
   inkscape:cx="298.80145"
   inkscape:cy="121.35533"
   inkscape:window-width="1920"
   inkscape:window-height="1013"
   inkscape:window-x="-9"
   inkscape:window-y="-9"
   inkscape:window-maximized="1"
   inkscape:current-layer="Capa_1" />
<style
   type="text/css"
   id="style87">
	.st0{fill:none;}
	.st1{clip-path:url(#SVGID_00000152258460320373185710000003574475651520211359_);}
	.st2{fill:#527A82;}
</style>
<rect
   x="262.77429"
   y="7.9113202"
   class="st0"
   width="44.010818"
   height="44.010818"
   id="rect89"
   style="stroke-width:1.37534" />
<g
   id="g105"
   transform="matrix(1.3753382,0,0,1.3753382,-96.60158,-206.64142)">
	<defs
   id="defs92">
		
			<rect
   id="SVGID_1_"
   x="261.5"
   y="150.39999"
   transform="matrix(0.2904,-0.9569,0.9569,0.2904,33.2025,385.5079)"
   width="30"
   height="40" />
	</defs>
	<clipPath
   id="SVGID_00000132052391456173194140000000639710424172021177_">
		<use
   xlink:href="#SVGID_1_"
   style="overflow:visible"
   id="use94" />
	</clipPath>
	<g
   clip-path="url(#SVGID_00000132052391456173194140000000639710424172021177_)"
   id="g103">
		
			<rect
   x="261.5"
   y="150.39999"
   transform="matrix(0.2904,-0.9569,0.9569,0.2904,33.2025,385.5079)"
   class="st0"
   width="30"
   height="40"
   id="rect97" />
		<g
   id="g101">
			<path
   class="st2"
   d="m 285.6,162.2 c -1.6,-4.8 -7.8,-7.1 -12.2,-3.7 -9.6,-5.1 -16.4,7.7 -7.3,12.5 -0.1,2.4 -1.2,6.3 -2.1,9.4 -0.5,1.6 0.1,1.7 1,2 l 14.5,4.4 c 0.7,0.2 1.3,0.2 1.7,-1.1 0.1,-0.3 2.5,-7.4 3.5,-9.1 10.5,1 11.3,-13.6 0.9,-14.4"
   id="path99" />
		</g>
	</g>
</g>
<g
   id="g113"
   transform="matrix(1.3753382,0,0,1.3753382,-96.60158,-206.64142)">
	<g
   transform="translate(49.738418,189.80357)"
   id="g111">
		<g
   id="g109">
			<path
   class="st2"
   d="m 20.5,24.6 c 0,-7.6 1.7,-14.4 5.1,-20.4 3.4,-6 8.1,-10.7 14,-14 5.9,-3.4 12.6,-5 19.9,-5 8.6,0 16.2,2.2 22.6,6.6 6.5,4.4 11,10.5 13.6,18.3 H 78 C 76.2,6.4 73.8,3.7 70.5,1.8 67.3,0 63.6,-0.9 59.4,-0.9 c -4.5,0 -8.5,1.1 -12,3.1 -3.5,2.1 -6.2,5.1 -8.2,8.9 -1.9,3.8 -2.9,8.3 -2.9,13.5 0,5.1 1,9.5 2.9,13.4 2,3.9 4.7,6.8 8.2,8.9 3.5,2.1 7.5,3.1 12,3.1 4.2,0 7.9,-0.9 11.1,-2.8 3.2,-1.9 5.7,-4.7 7.5,-8.3 h 17.8 c -2.6,7.9 -7.1,14 -13.5,18.4 -6.4,4.4 -14,6.6 -22.7,6.6 -7.4,0 -14,-1.7 -19.9,-5 -5.9,-3.4 -10.6,-8 -14,-14 C 22.2,39 20.5,32.2 20.5,24.6 Z"
   id="path107" />
		</g>
	</g>
</g>
<g
   id="g121"
   transform="matrix(1.3753382,0,0,1.3753382,-96.60158,-206.64142)">
	<g
   transform="translate(113.34876,189.80357)"
   id="g119">
		<g
   id="g117">
			<path
   class="st2"
   d="M 72.6,64.3 C 66.7,64.3 61.4,63 56.7,60.4 52,57.8 48.3,54.1 45.6,49.3 42.9,44.5 41.6,39 41.6,32.7 41.6,26.4 43,20.9 45.7,16.1 48.4,11.3 52.2,7.6 57,5 61.8,2.4 67.1,1.1 73,1.1 c 5.9,0 11.2,1.3 16,3.9 4.8,2.6 8.6,6.3 11.3,11.1 2.8,4.8 4.1,10.3 4.1,16.6 0,6.2 -1.4,11.8 -4.2,16.6 -2.8,4.8 -6.7,8.5 -11.5,11.1 -4.8,2.6 -10.2,3.9 -16.1,3.9 z m 0,-13.5 c 2.8,0 5.4,-0.7 7.9,-2 2.5,-1.4 4.4,-3.4 5.9,-6.1 1.5,-2.7 2.2,-6 2.2,-9.9 0,-5.8 -1.5,-10.3 -4.6,-13.4 -3.1,-3.1 -6.8,-4.7 -11.2,-4.7 -4.4,0 -8.1,1.6 -11.1,4.7 -3,3.1 -4.5,7.6 -4.5,13.4 0,5.8 1.4,10.3 4.4,13.4 2.9,3 6.6,4.6 11,4.6 z"
   id="path115" />
		</g>
	</g>
</g>
<g
   id="g129"
   transform="matrix(1.3753382,0,0,1.3753382,-96.60158,-206.64142)">
	<g
   transform="translate(166.19172,189.80357)"
   id="g127">
		<g
   id="g125">
			<path
   class="st2"
   d="M 90.2,64.3 C 84.3,64.3 79,63 74.3,60.4 69.6,57.8 65.9,54.1 63.2,49.3 c -2.7,-4.8 -4,-10.3 -4,-16.6 0,-6.3 1.4,-11.8 4.1,-16.6 2.8,-4.8 6.5,-8.5 11.3,-11.1 4.8,-2.6 10.1,-3.9 16,-3.9 5.9,0 11.2,1.3 16,3.9 4.8,2.6 8.6,6.3 11.3,11.1 2.8,4.8 4.1,10.3 4.1,16.6 0,6.2 -1.4,11.8 -4.2,16.6 -2.8,4.8 -6.7,8.5 -11.5,11.1 -4.8,2.6 -10.2,3.9 -16.1,3.9 z m 0,-13.5 c 2.8,0 5.4,-0.7 7.9,-2 2.5,-1.4 4.4,-3.4 5.9,-6.1 1.5,-2.7 2.2,-6 2.2,-9.9 0,-5.8 -1.5,-10.3 -4.6,-13.4 -3.1,-3.1 -6.8,-4.7 -11.2,-4.7 -4.4,0 -8.1,1.6 -11.1,4.7 -3,3.1 -4.5,7.6 -4.5,13.4 0,5.8 1.4,10.3 4.4,13.4 2.9,3 6.6,4.6 11,4.6 z"
   id="path123" />
		</g>
	</g>
</g>
<g
   id="g137"
   transform="matrix(1.3753382,0,0,1.3753382,-96.60158,-206.64142)">
	<g
   transform="translate(219.03468,189.80357)"
   id="g135">
		<g
   id="g133">
			<path
   class="st2"
   d="M 116.8,63.3 96.1,37.2 V 63.3 H 80.6 V -18.4 H 96.1 V 28 L 116.6,2 h 20.1 l -27,30.7 27.2,30.5 h -20.1 z"
   id="path131" />
		</g>
	</g>
</g>
<g
   id="g145"
   transform="matrix(1.3753382,0,0,1.3753382,-96.60158,-206.64142)">
	<g
   transform="translate(267.40505,189.80357)"
   id="g143">
		<g
   id="g141">
			<path
   class="st2"
   d="m 112,-13.8 v 47.7 c 0,5.2 1.4,9.2 4.1,12 2.7,2.8 6.6,4.1 11.5,4.1 5,0 8.9,-1.4 11.6,-4.1 2.7,-2.8 4.1,-6.8 4.1,-12 v -47.7 h 15.6 v 47.6 c 0,6.5 -1.4,12.1 -4.2,16.6 -2.8,4.5 -6.6,7.9 -11.4,10.2 -4.8,2.3 -10,3.4 -15.9,3.4 -5.7,0 -10.9,-1.1 -15.6,-3.4 -4.7,-2.3 -8.4,-5.7 -11.1,-10.2 C 98,45.9 96.6,40.3 96.6,33.8 v -47.6 z"
   id="path139" />
		</g>
	</g>
</g>
<g
   id="g153"
   transform="matrix(1.3753382,0,0,1.3753382,-96.60158,-206.64142)">
	<g
   transform="translate(325.13475,189.80357)"
   id="g151">
		<g
   id="g149">
			<path
   class="st2"
   d="m 131.5,10.9 c 2,-2.8 4.7,-5.1 8.2,-7 3.5,-1.9 7.5,-2.8 12,-2.8 5.2,0 9.9,1.3 14.2,3.9 4.2,2.6 7.6,6.2 10,11 2.5,4.7 3.7,10.2 3.7,16.5 0,6.3 -1.2,11.8 -3.7,16.6 -2.5,4.8 -5.8,8.6 -10,11.2 -4.2,2.7 -9,4 -14.2,4 -4.5,0 -8.4,-0.9 -11.9,-2.8 -3.4,-1.8 -6.2,-4.2 -8.3,-7 V 92.4 H 116 V 2.1 h 15.5 z m 32.3,21.6 c 0,-3.7 -0.8,-6.9 -2.3,-9.5 -1.5,-2.7 -3.5,-4.7 -6,-6.1 -2.5,-1.4 -5.1,-2.1 -8,-2.1 -2.8,0 -5.4,0.7 -7.9,2.1 -2.5,1.4 -4.4,3.5 -6,6.2 -1.5,2.7 -2.2,5.9 -2.2,9.6 0,3.7 0.8,6.9 2.2,9.6 1.5,2.7 3.5,4.8 6,6.2 2.5,1.4 5.1,2.1 7.9,2.1 2.9,0 5.5,-0.7 8,-2.2 2.5,-1.5 4.5,-3.6 6,-6.3 1.6,-2.6 2.3,-5.9 2.3,-9.6 z"
   id="path147" />
		</g>
	</g>
</g>
<g
   id="g157"
   transform="translate(-1.56651,-100.56045)">
	<g
   transform="translate(381.28095,189.80357)"
   id="g155">
	</g>
</g>
<g
   id="g161"
   transform="translate(-1.56651,-100.56045)">
	<g
   transform="translate(226.24927,236.66547)"
   id="g159">
	</g>
</g>
<g
   id="g165"
   transform="translate(-1.56651,-100.56045)">
	<g
   transform="translate(226.66236,108.20548)"
   id="g163">
	</g>
</g>
</svg>
