<?xml version="1.0" encoding="utf-8"?>
<!-- Generator: Adobe Illustrator 26.2.1, SVG Export Plug-In . SVG Version: 6.00 Build 0)  -->
<svg version="1.1" id="Capa_1" xmlns="http://www.w3.org/2000/svg" xmlns:xlink="http://www.w3.org/1999/xlink" x="0px" y="0px"
	 viewBox="0 0 601 433" style="enable-background:new 0 0 601 433;" xml:space="preserve">
<style type="text/css">
	.st0{fill:none;}
	.st1{clip-path:url(#SVGID_00000152258460320373185710000003574475651520211359_);}
	.st2{fill:#527A82;}
</style>
<rect x="261.3" y="156" class="st0" width="32" height="32"/>
<g>
	<defs>
		
			<rect id="SVGID_1_" x="261.5" y="150.4" transform="matrix(0.2904 -0.9569 0.9569 0.2904 33.2025 385.5079)" width="30" height="40"/>
	</defs>
	<clipPath id="SVGID_00000132052391456173194140000000639710424172021177_">
		<use xlink:href="#SVGID_1_"  style="overflow:visible;"/>
	</clipPath>
	<g style="clip-path:url(#SVGID_00000132052391456173194140000000639710424172021177_);">
		
			<rect x="261.5" y="150.4" transform="matrix(0.2904 -0.9569 0.9569 0.2904 33.2025 385.5079)" class="st0" width="30" height="40"/>
		<g>
			<path class="st2" d="M285.6,162.2c-1.6-4.8-7.8-7.1-12.2-3.7c-9.6-5.1-16.4,7.7-7.3,12.5c-0.1,2.4-1.2,6.3-2.1,9.4
				c-0.5,1.6,0.1,1.7,1,2l14.5,4.4c0.7,0.2,1.3,0.2,1.7-1.1c0.1-0.3,2.5-7.4,3.5-9.1C295.2,177.6,296,163,285.6,162.2"/>
		</g>
	</g>
</g>
<g>
	<g transform="translate(49.738418, 189.803572)">
		<g>
			<path class="st2" d="M20.5,24.6c0-7.6,1.7-14.4,5.1-20.4c3.4-6,8.1-10.7,14-14c5.9-3.4,12.6-5,19.9-5c8.6,0,16.2,2.2,22.6,6.6
				c6.5,4.4,11,10.5,13.6,18.3H78c-1.8-3.7-4.2-6.4-7.5-8.3C67.3,0,63.6-0.9,59.4-0.9c-4.5,0-8.5,1.1-12,3.1
				c-3.5,2.1-6.2,5.1-8.2,8.9c-1.9,3.8-2.9,8.3-2.9,13.5c0,5.1,1,9.5,2.9,13.4c2,3.9,4.7,6.8,8.2,8.9c3.5,2.1,7.5,3.1,12,3.1
				c4.2,0,7.9-0.9,11.1-2.8c3.2-1.9,5.7-4.7,7.5-8.3h17.8c-2.6,7.9-7.1,14-13.5,18.4c-6.4,4.4-14,6.6-22.7,6.6c-7.4,0-14-1.7-19.9-5
				c-5.9-3.4-10.6-8-14-14C22.2,39,20.5,32.2,20.5,24.6z"/>
		</g>
	</g>
</g>
<g>
	<g transform="translate(113.348763, 189.803572)">
		<g>
			<path class="st2" d="M72.6,64.3c-5.9,0-11.2-1.3-15.9-3.9c-4.7-2.6-8.4-6.3-11.1-11.1c-2.7-4.8-4-10.3-4-16.6
				c0-6.3,1.4-11.8,4.1-16.6C48.4,11.3,52.2,7.6,57,5c4.8-2.6,10.1-3.9,16-3.9c5.9,0,11.2,1.3,16,3.9c4.8,2.6,8.6,6.3,11.3,11.1
				c2.8,4.8,4.1,10.3,4.1,16.6c0,6.2-1.4,11.8-4.2,16.6c-2.8,4.8-6.7,8.5-11.5,11.1C83.9,63,78.5,64.3,72.6,64.3z M72.6,50.8
				c2.8,0,5.4-0.7,7.9-2c2.5-1.4,4.4-3.4,5.9-6.1c1.5-2.7,2.2-6,2.2-9.9c0-5.8-1.5-10.3-4.6-13.4c-3.1-3.1-6.8-4.7-11.2-4.7
				c-4.4,0-8.1,1.6-11.1,4.7c-3,3.1-4.5,7.6-4.5,13.4c0,5.8,1.4,10.3,4.4,13.4C64.5,49.2,68.2,50.8,72.6,50.8z"/>
		</g>
	</g>
</g>
<g>
	<g transform="translate(166.191724, 189.803572)">
		<g>
			<path class="st2" d="M90.2,64.3c-5.9,0-11.2-1.3-15.9-3.9c-4.7-2.6-8.4-6.3-11.1-11.1c-2.7-4.8-4-10.3-4-16.6
				c0-6.3,1.4-11.8,4.1-16.6c2.8-4.8,6.5-8.5,11.3-11.1c4.8-2.6,10.1-3.9,16-3.9c5.9,0,11.2,1.3,16,3.9c4.8,2.6,8.6,6.3,11.3,11.1
				c2.8,4.8,4.1,10.3,4.1,16.6c0,6.2-1.4,11.8-4.2,16.6c-2.8,4.8-6.7,8.5-11.5,11.1C101.5,63,96.1,64.3,90.2,64.3z M90.2,50.8
				c2.8,0,5.4-0.7,7.9-2c2.5-1.4,4.4-3.4,5.9-6.1c1.5-2.7,2.2-6,2.2-9.9c0-5.8-1.5-10.3-4.6-13.4c-3.1-3.1-6.8-4.7-11.2-4.7
				c-4.4,0-8.1,1.6-11.1,4.7c-3,3.1-4.5,7.6-4.5,13.4c0,5.8,1.4,10.3,4.4,13.4C82.1,49.2,85.8,50.8,90.2,50.8z"/>
		</g>
	</g>
</g>
<g>
	<g transform="translate(219.034685, 189.803572)">
		<g>
			<path class="st2" d="M116.8,63.3L96.1,37.2v26.1H80.6v-81.7h15.5V28l20.5-26h20.1l-27,30.7l27.2,30.5H116.8z"/>
		</g>
	</g>
</g>
<g>
	<g transform="translate(267.405054, 189.803572)">
		<g>
			<path class="st2" d="M112-13.8v47.7c0,5.2,1.4,9.2,4.1,12c2.7,2.8,6.6,4.1,11.5,4.1c5,0,8.9-1.4,11.6-4.1c2.7-2.8,4.1-6.8,4.1-12
				v-47.7h15.6v47.6c0,6.5-1.4,12.1-4.2,16.6c-2.8,4.5-6.6,7.9-11.4,10.2c-4.8,2.3-10,3.4-15.9,3.4c-5.7,0-10.9-1.1-15.6-3.4
				c-4.7-2.3-8.4-5.7-11.1-10.2c-2.7-4.5-4.1-10.1-4.1-16.6v-47.6H112z"/>
		</g>
	</g>
</g>
<g>
	<g transform="translate(325.134755, 189.803572)">
		<g>
			<path class="st2" d="M131.5,10.9c2-2.8,4.7-5.1,8.2-7s7.5-2.8,12-2.8c5.2,0,9.9,1.3,14.2,3.9c4.2,2.6,7.6,6.2,10,11
				c2.5,4.7,3.7,10.2,3.7,16.5c0,6.3-1.2,11.8-3.7,16.6c-2.5,4.8-5.8,8.6-10,11.2c-4.2,2.7-9,4-14.2,4c-4.5,0-8.4-0.9-11.9-2.8
				c-3.4-1.8-6.2-4.2-8.3-7v37.9H116V2.1h15.5V10.9z M163.8,32.5c0-3.7-0.8-6.9-2.3-9.5c-1.5-2.7-3.5-4.7-6-6.1
				c-2.5-1.4-5.1-2.1-8-2.1c-2.8,0-5.4,0.7-7.9,2.1c-2.5,1.4-4.4,3.5-6,6.2c-1.5,2.7-2.2,5.9-2.2,9.6c0,3.7,0.8,6.9,2.2,9.6
				c1.5,2.7,3.5,4.8,6,6.2c2.5,1.4,5.1,2.1,7.9,2.1c2.9,0,5.5-0.7,8-2.2c2.5-1.5,4.5-3.6,6-6.3C163.1,39.5,163.8,36.2,163.8,32.5z"
				/>
		</g>
	</g>
</g>
<g>
	<g transform="translate(381.280948, 189.803572)">
	</g>
</g>
<g>
	<g transform="translate(226.249266, 236.665472)">
	</g>
</g>
<g>
	<g transform="translate(226.66236, 108.205484)">
	</g>
</g>
</svg>
